# xmcd
#
# Track frame offsets:
#	182
#	16535
#	29422
#	41615
#	58897
#	72160
#	85785
#	99005
#	116412
#	137087
#	147777
#	162632
#	178440
#	191837
#	202300
#	214565
#
# Disc length: 3022 seconds
#
# Revision: 1
# Processed by: cddbd v1.5.2PL0 Copyright (c) Steve Scherf et al.
# Submitted via: audiograbber 1.83.01
#
DISCID=e70bcc10
DTITLE=Roto Noto - E Nun Ciate
DYEAR=1993
DGENRE=
TTITLE0=Destination You -Michael Terry
TTITLE1=Easy For You To Say -Mark Laforme
TTITLE2=I Used To Shake -Kathy Deli
TTITLE3=Amber Nights -Somerville Brothers
TTITLE4=Whatcha Thinking ´Bout Now -Jack Diamond
TTITLE5=Runaway Train -George Too Lucki
TTITLE6=Ain´t It Funny -Ugly Bob
TTITLE7=Abgel´s Tears -Paul Newell
TTITLE8=Turn A Light On -Judy Johnson
TTITLE9=Mary Ellen Bellamy -Curly Neill
TTITLE10=I´d Rather Belive -Jenny Lee West
TTITLE11=Life On The Road -Mick Lloyd
TTITLE12=Rocking At The Dance Hall -Kimberly Carter
TTITLE13=She Loves A Rodeo Cowboys Jimmy Faulks
TTITLE14=Lifetime Of Mondays -Lorriaine White
TTITLE15=Set Our Love Free -Terry Micallf
EXTD=
EXTT0=
EXTT1=
EXTT2=
EXTT3=
EXTT4=
EXTT5=
EXTT6=
EXTT7=
EXTT8=
EXTT9=
EXTT10=
EXTT11=
EXTT12=
EXTT13=
EXTT14=
EXTT15=
PLAYORDER=
